<svg width="359" height="243" viewBox="0 0 359 243" fill="none" xmlns="http://www.w3.org/2000/svg">
<g clip-path="url(#clip0)">
<path d="M88.6952 88.5885C91.0888 84.0688 91.4839 78.1821 88.5076 74.0231C86.736 71.5474 83.9697 69.9223 81.0671 69.0057C78.1645 68.089 75.1025 67.8196 72.0669 67.5968C69.0619 67.3763 66.0035 67.1998 63.0681 67.8796C60.1326 68.5595 57.2893 70.2203 55.8594 72.8731C53.4437 77.3545 55.6442 83.1009 53.8699 87.873C52.2417 92.2523 47.6076 94.8125 43.0521 95.8457C38.4966 96.8789 33.7419 96.769 29.1841 97.7922C24.6264 98.8153 19.9845 101.352 18.3274 105.72C17.1291 108.879 17.7245 112.518 19.3035 115.505C20.8825 118.492 23.3555 120.91 25.9804 123.036C29.8964 126.208 34.4779 128.925 39.5095 129.2C44.8113 129.49 49.9953 126.966 53.8112 123.273C57.6271 119.58 60.225 114.807 62.3006 109.919C63.6173 106.818 64.8613 103.48 67.5 101.386C69.439 99.847 71.9051 99.1728 74.2967 98.5352L77.0048 97.8131C79.4588 97.1709 81.7555 96.0332 83.7535 94.4701C85.7516 92.9069 87.4087 90.9513 88.6231 88.7237C88.6472 88.6788 88.6713 88.6337 88.6952 88.5885Z" fill="#2F2E41"/>
<path d="M67.3377 237.264H61.8373L59.2201 216.041H67.339L67.3377 237.264Z" fill="#FFB8B8"/>
<path d="M57.9079 235.692H68.5165V242.373H51.2285C51.2285 241.496 51.4012 240.627 51.7369 239.816C52.0726 239.006 52.5646 238.269 53.1848 237.649C53.8051 237.028 54.5414 236.536 55.3518 236.2C56.1622 235.865 57.0308 235.692 57.9079 235.692V235.692Z" fill="#2F2E41"/>
<path d="M113.103 237.264H107.603L104.986 216.041H113.105L113.103 237.264Z" fill="#FFB8B8"/>
<path d="M103.673 235.692H114.282V242.373H96.994C96.994 241.496 97.1668 240.627 97.5024 239.816C97.8381 239.006 98.3301 238.269 98.9504 237.649C99.5706 237.028 100.307 236.536 101.117 236.2C101.928 235.865 102.796 235.692 103.673 235.692V235.692Z" fill="#2F2E41"/>
<path d="M77.9117 220.396C77.835 220.396 77.7583 220.392 77.682 220.384L55.3029 217.985C55.0057 217.954 54.7187 217.859 54.4609 217.707C54.2032 217.556 53.9807 217.351 53.8082 217.107C53.6357 216.863 53.5172 216.585 53.4606 216.291C53.404 215.997 53.4105 215.695 53.4798 215.404L73.2947 140.019C73.3875 139.636 73.5856 139.286 73.8667 139.009C74.1477 138.732 74.5006 138.539 74.8854 138.452L93.267 133.327C93.6356 133.246 94.0191 133.265 94.3779 133.382C94.7367 133.499 95.0577 133.709 95.3079 133.992C107.126 147.326 116.033 176.884 122.779 214.141C122.83 214.422 122.823 214.71 122.759 214.989C122.695 215.267 122.575 215.53 122.406 215.76C122.237 215.991 122.023 216.184 121.777 216.329C121.531 216.475 121.258 216.568 120.975 216.604L102.638 218.946C102.118 219.014 101.592 218.884 101.162 218.583C100.733 218.282 100.432 217.831 100.318 217.318L91.3967 177.533C91.3147 177.167 91.1094 176.84 90.8151 176.607C90.5209 176.374 90.1557 176.25 89.7805 176.254C89.4054 176.258 89.0431 176.391 88.7543 176.631C88.4656 176.871 88.2678 177.202 88.1943 177.57L79.9698 218.703C79.8767 219.18 79.6203 219.61 79.2448 219.919C78.8693 220.228 78.3979 220.397 77.9117 220.396V220.396Z" fill="#2F2E41"/>
<path d="M74.5076 98.94C80.5939 98.94 85.5277 94.0049 85.5277 87.917C85.5277 81.8292 80.5939 76.8941 74.5076 76.8941C68.4214 76.8941 63.4875 81.8292 63.4875 87.917C63.4875 94.0049 68.4214 98.94 74.5076 98.94Z" fill="#FFB8B8"/>
<path d="M74.1999 140.231C73.7366 140.231 73.2865 140.077 72.9196 139.794C72.5526 139.512 72.2895 139.115 72.1712 138.667L65.5416 113.755C65.0631 111.964 65.2613 110.061 66.0982 108.408C66.9351 106.754 68.352 105.468 70.0778 104.794C75.4144 102.711 80.4988 101.938 85.1896 102.496C89.3587 102.993 94.5018 127.682 94.1615 128.209L95.8067 133.145C95.9 133.425 95.9335 133.722 95.9048 134.015C95.8762 134.309 95.7861 134.594 95.6405 134.85C95.4948 135.107 95.2969 135.33 95.0595 135.505C94.8221 135.68 94.5505 135.804 94.2623 135.867L74.6572 140.181C74.507 140.214 74.3537 140.231 74.1999 140.231V140.231Z" fill="#CCCCCC"/>
<path d="M80.1414 165.708C80.2359 165.218 80.2217 164.713 80.0999 164.229C79.978 163.744 79.7516 163.293 79.4364 162.906C79.1212 162.518 78.725 162.205 78.2756 161.988C77.8262 161.77 77.3346 161.654 76.8355 161.647L73.0159 150.126L69.1121 155.08L73.3377 165.26C73.3817 166.1 73.7321 166.894 74.3224 167.492C74.9128 168.091 75.702 168.452 76.5407 168.507C77.3793 168.562 78.2091 168.308 78.8727 167.792C79.5364 167.276 79.9878 166.535 80.1414 165.708V165.708Z" fill="#FFB8B8"/>
<path d="M129.248 138.021C129.02 137.577 128.697 137.189 128.302 136.883C127.907 136.578 127.45 136.363 126.963 136.253C126.476 136.144 125.97 136.142 125.483 136.249C124.995 136.356 124.537 136.568 124.14 136.871L114.02 130.174L114.011 136.482L123.622 141.874C124.176 142.507 124.942 142.915 125.776 143.02C126.609 143.126 127.453 142.922 128.146 142.447C128.84 141.972 129.335 141.259 129.538 140.443C129.741 139.628 129.638 138.766 129.248 138.021H129.248Z" fill="#FFB8B8"/>
<path d="M72.1334 160.386C71.6908 160.386 71.2594 160.246 70.9007 159.987C70.5419 159.728 70.274 159.362 70.135 158.941L61.1808 139.995C60.8135 138.884 60.6265 137.722 60.6268 136.553L63.3189 111.927C63.3187 110.548 63.8447 109.221 64.7895 108.217C65.7342 107.213 67.0264 106.607 68.4023 106.524C69.7783 106.441 71.1341 106.886 72.1931 107.768C73.2521 108.651 73.9344 109.905 74.1006 111.273L69.9819 139.382L76.5545 156.634C76.6585 157.093 76.6054 157.574 76.4038 157.999C76.2021 158.424 75.8636 158.769 75.4425 158.979L73.0744 160.164C72.7822 160.31 72.4601 160.386 72.1334 160.386Z" fill="#CCCCCC"/>
<path d="M119.956 140.508C119.626 140.509 119.301 140.431 119.007 140.282L101.2 131.285C100.156 130.758 99.203 130.067 98.3778 129.238L80.9973 111.797C80.0242 110.821 79.4604 109.509 79.421 108.131C79.3816 106.753 79.8695 105.412 80.7852 104.381C81.7009 103.351 82.9753 102.709 84.3482 102.586C85.7211 102.463 87.0891 102.869 88.1728 103.721L107.001 124.637L121.925 134.115C122.323 134.367 122.624 134.745 122.782 135.188C122.939 135.632 122.943 136.115 122.792 136.561L121.951 139.073C121.811 139.491 121.543 139.854 121.185 140.112C120.827 140.37 120.397 140.508 119.956 140.508L119.956 140.508Z" fill="#CCCCCC"/>
<path d="M61.9728 82.218C63.8448 84.6675 66.5356 86.3612 69.5533 86.9893C72.6122 87.6215 75.7957 87.1653 78.5539 85.6994C80.7734 84.4999 82.5494 82.6996 84.289 80.9272C85.015 80.1874 85.7882 79.3344 85.7517 78.3253C85.6951 76.7618 83.816 75.907 82.2032 75.566C76.9094 74.4614 71.401 75.081 66.4847 77.3342C64.2951 78.3515 62.0138 80.1921 62.3426 82.48" fill="#2F2E41"/>
<path d="M351.372 85.0228H135.108C133.086 85.0257 131.147 85.8304 129.718 87.2606C128.288 88.6908 127.483 90.6298 127.48 92.6524V176.129C127.483 178.152 128.288 180.091 129.718 181.521C131.147 182.951 133.086 183.756 135.108 183.759H351.372C353.394 183.756 355.333 182.951 356.763 181.521C358.193 180.091 358.997 178.152 359 176.129V92.6524C358.997 90.6298 358.193 88.6908 356.763 87.2606C355.333 85.8304 353.394 85.0257 351.372 85.0228V85.0228ZM358.103 176.129C358.1 177.914 357.391 179.625 356.129 180.887C354.867 182.149 353.157 182.859 351.372 182.861H135.108C133.324 182.859 131.613 182.149 130.351 180.887C129.09 179.625 128.38 177.914 128.378 176.129V92.6524C128.38 90.8676 129.09 89.1566 130.351 87.8946C131.613 86.6326 133.324 85.9226 135.108 85.9204H351.372C353.157 85.9226 354.867 86.6326 356.129 87.8946C357.391 89.1566 358.1 90.8676 358.103 92.6524V176.129Z" fill="#3F3D56"/>
<path d="M174.374 160.421C169.227 160.421 164.195 158.894 159.916 156.034C155.636 153.174 152.301 149.108 150.331 144.352C148.361 139.596 147.846 134.362 148.85 129.312C149.854 124.263 152.333 119.625 155.972 115.984C159.612 112.344 164.249 109.865 169.297 108.861C174.345 107.856 179.577 108.372 184.332 110.342C189.088 112.312 193.152 115.648 196.011 119.929C198.871 124.21 200.397 129.242 200.397 134.391C200.389 141.292 197.645 147.908 192.766 152.788C187.888 157.668 181.273 160.413 174.374 160.421V160.421ZM174.374 109.258C169.404 109.258 164.546 110.732 160.414 113.494C156.282 116.255 153.062 120.18 151.16 124.773C149.258 129.365 148.761 134.419 149.73 139.294C150.7 144.169 153.093 148.647 156.607 152.162C160.121 155.677 164.598 158.071 169.472 159.041C174.346 160.01 179.398 159.513 183.989 157.61C188.58 155.708 192.504 152.487 195.265 148.354C198.026 144.221 199.5 139.361 199.5 134.391C199.492 127.727 196.843 121.339 192.132 116.628C187.422 111.916 181.035 109.266 174.374 109.258Z" fill="#3F3D56"/>
<path d="M332.073 117.785H228.427C226.979 117.786 225.587 118.348 224.543 119.352C223.499 120.357 222.884 121.727 222.828 123.175C222.82 123.248 222.817 123.322 222.819 123.395C222.821 124.882 223.413 126.308 224.464 127.36C225.515 128.411 226.941 129.003 228.427 129.005H332.073C333.56 129.005 334.987 128.414 336.039 127.362C337.09 126.31 337.681 124.883 337.681 123.395C337.681 121.907 337.09 120.48 336.039 119.428C334.987 118.376 333.56 117.785 332.073 117.785Z" fill="white"/>
<path d="M332.073 139.776H228.427C226.979 139.777 225.587 140.339 224.543 141.344C223.499 142.348 222.884 143.718 222.828 145.166C222.82 145.239 222.817 145.313 222.819 145.386C222.821 146.873 223.413 148.299 224.464 149.351C225.515 150.402 226.941 150.994 228.427 150.996H332.073C333.56 150.996 334.987 150.405 336.039 149.353C337.09 148.301 337.681 146.874 337.681 145.386C337.681 143.898 337.09 142.471 336.039 141.419C334.987 140.367 333.56 139.776 332.073 139.776V139.776Z" fill="white"/>
<path d="M171.47 145.764C170.744 145.765 170.037 145.53 169.456 145.095L169.42 145.068L161.836 139.259C161.485 138.99 161.19 138.654 160.968 138.271C160.747 137.888 160.603 137.465 160.545 137.026C160.487 136.587 160.516 136.141 160.63 135.714C160.744 135.286 160.941 134.885 161.211 134.534C161.48 134.183 161.815 133.888 162.198 133.666C162.582 133.445 163.004 133.301 163.443 133.243C163.882 133.184 164.328 133.213 164.755 133.328C165.183 133.442 165.584 133.639 165.935 133.908L170.847 137.676L182.457 122.532C182.726 122.181 183.062 121.886 183.445 121.665C183.828 121.443 184.251 121.299 184.69 121.241C185.129 121.183 185.574 121.213 186.002 121.327C186.429 121.441 186.83 121.639 187.181 121.908L187.109 122.006L187.183 121.91C187.891 122.454 188.355 123.258 188.472 124.143C188.589 125.029 188.349 125.926 187.807 126.635L174.151 144.449C173.835 144.859 173.429 145.191 172.964 145.419C172.499 145.648 171.988 145.765 171.47 145.764V145.764Z" fill="white"/>
<path d="M171.396 243H0.448697C0.329699 243 0.215575 242.953 0.131431 242.869C0.0472866 242.784 1.52588e-05 242.67 1.52588e-05 242.551C1.52588e-05 242.432 0.0472866 242.318 0.131431 242.234C0.215575 242.15 0.329699 242.102 0.448697 242.102H171.396C171.515 242.102 171.63 242.15 171.714 242.234C171.798 242.318 171.845 242.432 171.845 242.551C171.845 242.67 171.798 242.784 171.714 242.869C171.63 242.953 171.515 243 171.396 243Z" fill="#3F3D56"/>
</g>
<defs>
<clipPath id="clip0">
<rect width="359" height="243" fill="white"/>
</clipPath>
</defs>
</svg>
