<svg width="45" height="40" viewBox="0 0 127 127" fill="none" xmlns="http://www.w3.org/2000/svg">
<path d="M121.359 0.609375H5.64062C2.85771 0.609375 0.609375 2.85771 0.609375 5.64062V121.359C0.609375 124.142 2.85771 126.391 5.64062 126.391H121.359C124.142 126.391 126.391 124.142 126.391 121.359V5.64062C126.391 2.85771 124.142 0.609375 121.359 0.609375ZM93.6875 67.2734C93.6875 67.9652 93.1215 68.5312 92.4297 68.5312H68.5312V92.4297C68.5312 93.1215 67.9652 93.6875 67.2734 93.6875H59.7266C59.0348 93.6875 58.4688 93.1215 58.4688 92.4297V68.5312H34.5703C33.8785 68.5312 33.3125 67.9652 33.3125 67.2734V59.7266C33.3125 59.0348 33.8785 58.4688 34.5703 58.4688H58.4688V34.5703C58.4688 33.8785 59.0348 33.3125 59.7266 33.3125H67.2734C67.9652 33.3125 68.5312 33.8785 68.5312 34.5703V58.4688H92.4297C93.1215 58.4688 93.6875 59.0348 93.6875 59.7266V67.2734Z" fill="white"/>
</svg>
