<svg width="35" height="35" viewBox="0 0 50 50" fill="none" xmlns="http://www.w3.org/2000/svg">
<path fill-rule="evenodd" clip-rule="evenodd" d="M45 6.66667H40V0H36.6667V6.66667H13.3333V0H10V6.66667H5C3.67392 6.66667 2.40215 7.19345 1.46447 8.13113C0.526784 9.06881 0 10.3406 0 11.6667L0 45C0 46.3261 0.526784 47.5979 1.46447 48.5355C2.40215 49.4732 3.67392 50 5 50H45C46.3261 50 47.5979 49.4732 48.5355 48.5355C49.4732 47.5979 50 46.3261 50 45V11.6667C50 10.3406 49.4732 9.06881 48.5355 8.13113C47.5979 7.19345 46.3261 6.66667 45 6.66667V6.66667ZM23.4133 37.44L36.2533 22.7633L33.7467 20.57L23.2533 32.5633L17.8467 27.1533L15.4867 29.5133L23.4133 37.44V37.44Z" fill="white"/>
</svg>
